PathFileType	4	(X/Y/Z)	E-squat_0-154.trc
DataRate	CameraRate	NumFrames	NumMarkers	Units	OrigDataRate	OrigDataStartFrame	OrigNumFrames
30	30	6	22	m	30	0	154
Frame#	Time	Hip			RHip			RKnee			RAnkle			RBigToe			RSmallToe			RHeel			LHip			LKnee			LAnkle			LBigToe			LSmallToe			LHeel			Neck			Head			Nose			RShoulder			RElbow			RWrist			LShoulder			LElbow			LWrist			
		X1	Y1	Z1	X2	Y2	Z2	X3	Y3	Z3	X4	Y4	Z4	X5	Y5	Z5	X6	Y6	Z6	X7	Y7	Z7	X8	Y8	Z8	X9	Y9	Z9	X10	Y10	Z10	X11	Y11	Z11	X12	Y12	Z12	X13	Y13	Z13	X14	Y14	Z14	X15	Y15	Z15	X16	Y16	Z16	X17	Y17	Z17	X18	Y18	Z18	X19	Y19	Z19	X20	Y20	Z20	X21	Y21	Z21	X22	Y22	Z22	
0	0.0	0.670819770668863	0.18642233138175082	0.1876345326764264	0.5900411831266873	0.12676880117065362	0.17623747395563016	0.5999968502816517	0.1309315219208544	-0.23305172743739633	0.5653282894179374	0.16750649212585222	-0.627908532949344	0.7000605737987401	0.04391110020587702	-0.6943839782585062	0.625342177028079	0.034549986986750145	-0.7069484246359216	0.5495349711114955	0.1888906978298108	-0.7036802658522888	0.7615725372797078	0.23170185115190936	0.18932380953467673	0.7828432960945321	0.27862308511397105	-0.2281778180675235	0.7914871717715602	0.3421008787130715	-0.6134774097037096	0.8782932775546611	0.2134802444965576	-0.6925625542994588	0.9117280968861463	0.2659043447421297	-0.6779224914804199	0.7501331854350446	0.3576807541645984	-0.6783826304309967	0.6615314782750579	0.1436468369286057	0.7896456684701905	0.6670814394445126	0.10834237778576716	1.0217671667435306	0.7163428632428369	0.04998268903109997	0.8831057348978624	0.5120682499441856	0.08197290278327844	0.6853477714525927	0.4953775198503664	0.07933505501190312	0.3982294736705817	0.5258195836715462	0.01989761414818874	0.14782938746836857	0.7881817372401975	0.24349401919976654	0.7131103427285795	0.8302423842461885	0.2854129040458524	0.428421668429694	0.9017430107917369	0.23533689190530044	0.18896953531624403
1	0.03333333333333333	0.6742648110997114	0.18244122042418043	0.19040767712771609	0.5902186311283053	0.1270546626955043	0.1737066992873961	0.5963837663764557	0.13501993706187107	-0.23641527758125694	0.5685795739413747	0.1641157877921875	-0.6225384629103925	0.7038856655893833	0.040102597967707	-0.6942715959448548	0.6299897680617506	0.03117053638298828	-0.704414096987879	0.553600278938751	0.19343563781018333	-0.6965441759295938	0.7653158097741629	0.22746622056133642	0.1843385635432586	0.7794535613922273	0.2830020686686556	-0.23462840830400566	0.7867562973553753	0.3385362303656196	-0.6106281431826038	0.8817579024225936	0.20886419487046606	-0.691933672721146	0.9159581447674872	0.2611695961323273	-0.6801727942484931	0.7468714728093726	0.36253838907140173	-0.676691549650527	0.6603096071603871	0.14337333649983927	0.79025543312429	0.6716676264433812	0.10431519614867804	1.0195720238501467	0.7247610230875777	0.049026712302211825	0.8810358088874737	0.5157474824507893	0.07863607467564546	0.6908811348051291	0.4870915749563454	0.07945123604933291	0.408409792024139	0.5217016548763147	0.016491466860254204	0.15773535535770314	0.7910289072000296	0.23873526124217143	0.7157921591898545	0.829330482238165	0.2772872542271919	0.43276796753754276	0.9017142081624004	0.23449637462177003	0.19238866331749904
2	0.06666666666666667	0.6777098515305597	0.17846010946661003	0.19318082157900576	0.5903960791299233	0.127340524220355	0.17117592461916203	0.5927706824712597	0.13910835220288775	-0.23977882772511755	0.571830858464812	0.16072508345852277	-0.617168392871441	0.7077107573800264	0.036294095729536985	-0.6941592136312034	0.6346373590954221	0.02779108577922641	-0.7018797693398365	0.5576655867660064	0.19798057779055586	-0.6894080860068988	0.7690590822686181	0.22323058997076348	0.17935331755184045	0.7760638266899226	0.2873810522233402	-0.24107899854048784	0.7820254229391904	0.3349715820181677	-0.6077788766614981	0.885222527290526	0.20424814524437454	-0.6913047911428333	0.920188192648828	0.25643484752252493	-0.6824230970165662	0.7436097601837006	0.3673960239782051	-0.6750004688700574	0.6590877360457164	0.14309983607107285	0.7908651977783896	0.6762538134422498	0.10028801451158892	1.0173768809567627	0.7331791829323185	0.048070735573323684	0.878965882877085	0.5194267149573929	0.07529924656801247	0.6964144981576655	0.47880563006232446	0.0795674170867627	0.41859011037769633	0.5175837260810832	0.013085319572319667	0.1676413232470377	0.7938760771598617	0.2339765032845763	0.7184739756511295	0.8284185802301415	0.26916160440853143	0.43711426664539155	0.901685405533064	0.23365585733823963	0.19580779131875406
3	0.1	0.6704305686567069	0.1825990984558089	0.1928662849292324	0.583316595716911	0.13107612056436377	0.16618208269591128	0.5886576903682564	0.1388914449867099	-0.24415878587303094	0.5707474180502656	0.16373271677138646	-0.624244276752536	0.7100189775332022	0.03622998712646188	-0.697607910315985	0.6337323861073352	0.03128990211084531	-0.7058709606319442	0.5566600093608042	0.20042348326439408	-0.6977804085677309	0.7656403229658423	0.22386488141212652	0.17450443779075633	0.7719724912438779	0.2875519450889661	-0.240759463061532	0.7815921537286454	0.33033908693657227	-0.6126719609381589	0.8892052847623804	0.2038974039772539	-0.6902763473537974	0.9242200931757151	0.2559758942927846	-0.6814268721740844	0.7544629971065852	0.349594269085191	-0.6733388724244733	0.6728663280214291	0.13079271722359312	0.7911605768641603	0.679307420496167	0.09274915373917962	1.017440843966964	0.7462932619377092	0.0363856177391105	0.8785490970731031	0.5226335443232688	0.06786003210240564	0.6967974291233908	0.4789406567486334	0.07560094680485095	0.417772633123	0.5170116889183545	0.009352816866769554	0.1726876002338482	0.8009959826715343	0.21392318612911204	0.7170781763336128	0.8396027757734162	0.25991667034958016	0.43560539119773894	0.9048664385085382	0.2336125366532661	0.1979468135347683
4	0.13333333333333333	0.6686754401758174	0.18477628036348231	0.18875203927860906	0.5778257839574176	0.13687221646753644	0.16202810609461354	0.5873607415316892	0.1410536262422195	-0.2467103497998319	0.573622703556656	0.16239084347654845	-0.6190184712597091	0.705727087233814	0.03464169776597358	-0.6956448145918767	0.6362914136843579	0.029378946210268757	-0.7037442594527913	0.5595126263179958	0.19962541393600688	-0.6914678367853665	0.7604908211743091	0.23031671922375918	0.1703017008278065	0.7740637389575326	0.2857737611690071	-0.24564366622544917	0.7833261143866259	0.3285558187496358	-0.6126870773222	0.8912632499688599	0.2016502468879694	-0.6903292107192138	0.9255752199249915	0.25372259780108025	-0.6842177091467233	0.7490839632278287	0.35673374279191766	-0.6752440163542621	0.6746609608685474	0.12153260920942563	0.7901109662044369	0.6863845777725893	0.07985743633220642	1.0159015140828707	0.7499039194130181	0.02732354644382511	0.8776449260169898	0.5205814377925636	0.06257061503779925	0.6961242401286111	0.47661150824520326	0.06308336970675381	0.41925998503841067	0.5183375234659501	0.0005440353433883542	0.17145361011722007	0.8033652137541771	0.2117991684804315	0.7195121991899891	0.8309337532509955	0.27095485659762125	0.4387027400480379	0.8929494005230314	0.2569910638866226	0.19202174883199688
5	0.16666666666666666	0.6614740563470596	0.1925418477331723	0.18920370007192863	0.5704683958328183	0.1437871152520497	0.16322695552417704	0.59447055053784	0.140299379278829	-0.23936732409607162	0.5700695731088985	0.16540609222215455	-0.6205661632814945	0.7051732428628088	0.03465298925917054	-0.696567746555563	0.6357351252265935	0.02907826545570595	-0.7045586009849073	0.5565389616929681	0.20279997854457715	-0.6982087065140783	0.7570218133655501	0.2346125051236774	0.17440262799308157	0.7744122423053051	0.2780892970158392	-0.24367232974703626	0.7838878107145718	0.3284471654034774	-0.6143317769363192	0.8921443448124952	0.20233763339427	-0.6888347153182077	0.9273534227671253	0.2545143596822578	-0.6799387398483976	0.7498237188131541	0.35658402261963823	-0.6762558778256199	0.6817820586409248	0.11375214221659645	0.7927361324150376	0.6936686990457631	0.07234021969994979	1.018019761533668	0.7558523546218178	0.0132266183767164	0.8762928397649377	0.5283020641685728	0.05502373994309831	0.6962735953616406	0.47335582741822385	0.0587460212595316	0.41248275656115735	0.5136916164334913	-0.0036356370258688662	0.16968986561249272	0.8075107582388853	0.2080562764672072	0.7178431672080182	0.8319325663480018	0.2715445397504983	0.4352104875271156	0.8970933286572859	0.25334929582875154	0.19062349562851236
